<?xml version="1.0" encoding="utf-8"?>
<!-- Generator: Adobe Illustrator 16.0.4, SVG Export Plug-In . SVG Version: 6.00 Build 0)  -->
<!DOCTYPE svg PUBLIC "-//W3C//DTD SVG 1.1//EN" "http://www.w3.org/Graphics/SVG/1.1/DTD/svg11.dtd">
<svg version="1.1" id="Layer_1" xmlns="http://www.w3.org/2000/svg" xmlns:xlink="http://www.w3.org/1999/xlink" x="0px" y="0px"
	 width="304px" height="114px" viewBox="0 0 304 114" enable-background="new 0 0 304 114" xml:space="preserve">
<g>
	<g>
		<polygon fill="#F3703E" points="26.061,44.677 46.158,36.427 68.442,58.854 68.145,66.399 49.761,76.384 26.136,54.489 		"/>
		<polyline fill="#F3703E" points="26.136,44.702 50.265,70.281 67.998,58.987 		"/>
		<line fill="#F3703E" x1="49.87" y1="70.659" x2="49.741" y2="76.251"/>
	</g>
	<path fill="#FFFFFF" d="M41.914,38.286L59.092,57.18c0.017,0.081,0.157,0.149,0.197,0.197c1.516,1.845-1.057,4.942-1.057,4.942
		c-5.353,3.394-8.497,0.659-8.497,0.659L29.001,43.534L41.914,38.286z"/>
	<g>
		<path fill="#616264" d="M45.222,49.849l-0.123,3.84c1.042-0.106,1.868-0.885,1.898-1.859
			C47.028,50.854,46.258,50.024,45.222,49.849z"/>
		<path fill="#616264" d="M44.573,49.829c-1.041,0.107-1.866,0.886-1.896,1.86c-0.032,0.974,0.739,1.804,1.773,1.979L44.573,49.829z
			"/>
	</g>
	<ellipse fill="#FFFFFF" cx="54.149" cy="59.124" rx="6.063" ry="5.635"/>
	<path fill="#616264" d="M60.245,59.749L40.171,39l2.137-0.903l17.573,17.6C59.881,55.696,60.895,57.986,60.245,59.749z"/>
	<g>
		<path fill="#F3703E" d="M79.192,77.283V30.519h7.353c4.265,0,7.384,0.275,9.359,0.827c2.8,0.743,5.028,2.12,6.684,4.133
			c1.654,2.014,2.482,4.387,2.482,7.12c0,1.781-0.377,3.397-1.129,4.85c-0.751,1.451-1.976,2.812-3.671,4.084
			c2.839,1.336,4.916,3.006,6.23,5.008c1.313,2.002,1.972,4.371,1.972,7.105c0,2.627-0.68,5.023-2.037,7.185
			c-1.359,2.161-3.108,3.778-5.251,4.848c-2.145,1.07-5.103,1.605-8.88,1.605H79.192z M88.095,39.007v9.855h1.945
			c2.171,0,3.782-0.456,4.836-1.367c1.053-0.91,1.578-2.15,1.578-3.719c0-1.463-0.499-2.623-1.499-3.481s-2.521-1.288-4.562-1.288
			H88.095z M88.095,56.81v11.986h2.23c3.698,0,6.189-0.467,7.475-1.398c1.285-0.933,1.929-2.289,1.929-4.07
			c0-2.014-0.754-3.602-2.264-4.769c-1.509-1.165-4.016-1.749-7.522-1.749H88.095z"/>
		<path fill="#A3A5A8" d="M133.969,46.478l-2.863,2.956c-2.379-2.309-4.706-3.465-6.979-3.465c-1.446,0-2.684,0.478-3.713,1.432
			c-1.031,0.954-1.548,2.067-1.548,3.339c0,1.122,0.426,2.193,1.276,3.209c0.849,1.039,2.633,2.258,5.351,3.656
			c3.314,1.717,5.564,3.37,6.755,4.959C133.415,64.175,134,65.988,134,68c0,2.841-0.997,5.247-2.993,7.216
			c-1.995,1.973-4.49,2.957-7.483,2.957c-1.995,0-3.899-0.434-5.713-1.303c-1.816-0.869-3.319-2.066-4.506-3.592l2.798-3.18
			c2.272,2.564,4.684,3.846,7.232,3.846c1.785,0,3.302-0.57,4.557-1.716c1.254-1.145,1.88-2.489,1.88-4.038
			c0-1.271-0.414-2.404-1.242-3.4c-0.828-0.975-2.698-2.205-5.606-3.688c-3.123-1.609-5.247-3.199-6.374-4.769
			c-1.125-1.568-1.686-3.359-1.686-5.373c0-2.627,0.895-4.811,2.689-6.549c1.793-1.737,4.06-2.606,6.799-2.606
			C127.536,41.805,130.742,43.362,133.969,46.478z"/>
		<path fill="#A3A5A8" d="M141.853,29.343h4.451v19.552c1.8-2.374,3.782-4.149,5.944-5.326c2.161-1.175,4.503-1.764,7.025-1.764
			c2.586,0,4.88,0.657,6.883,1.972c2.002,1.314,3.481,3.078,4.435,5.293c0.953,2.214,1.432,5.686,1.432,10.412v17.802h-4.451V60.784
			c0-3.984-0.16-6.645-0.477-7.979c-0.553-2.291-1.554-4.012-3.006-5.168c-1.451-1.154-3.353-1.732-5.705-1.732
			c-2.692,0-5.103,0.891-7.233,2.671c-2.131,1.781-3.534,3.985-4.212,6.612c-0.425,1.695-0.635,4.833-0.635,9.41v12.685h-4.451
			V29.343z"/>
		<path fill="#A3A5A8" d="M216.021,42.694v34.589h-4.388v-5.944c-1.865,2.268-3.957,3.974-6.279,5.117
			c-2.32,1.146-4.859,1.717-7.613,1.717c-4.895,0-9.076-1.773-12.542-5.324C181.733,69.299,180,64.98,180,59.894
			c0-4.979,1.751-9.24,5.247-12.779c3.497-3.539,7.703-5.31,12.621-5.31c2.839,0,5.409,0.604,7.708,1.812
			c2.301,1.209,4.319,3.021,6.057,5.438v-6.359H216.021z M198.232,46.097c-2.476,0-4.764,0.609-6.858,1.826
			c-2.096,1.217-3.763,2.928-5.002,5.129c-1.238,2.201-1.857,4.529-1.857,6.985c0,2.435,0.624,4.764,1.874,6.986
			c1.25,2.222,2.926,3.953,5.033,5.191c2.104,1.239,4.366,1.858,6.78,1.858c2.432,0,4.739-0.614,6.921-1.842
			c2.18-1.229,3.858-2.89,5.033-4.986c1.174-2.095,1.763-4.456,1.763-7.081c0-4-1.317-7.345-3.954-10.034
			C205.33,47.44,202.085,46.097,198.232,46.097z"/>
		<path fill="#A3A5A8" d="M224.349,42.694h4.547v5.055c1.355-1.99,2.786-3.48,4.292-4.466c1.503-0.985,3.071-1.479,4.705-1.479
			c1.229,0,2.544,0.393,3.941,1.177l-2.321,3.751c-0.934-0.402-1.717-0.604-2.352-0.604c-1.485,0-2.915,0.608-4.292,1.827
			c-1.378,1.219-2.427,3.11-3.147,5.675c-0.552,1.972-0.826,5.956-0.826,11.954v11.698h-4.547V42.694z"/>
		<path fill="#A3A5A8" d="M245.681,42.694h4.45v6.359c1.758-2.416,3.78-4.229,6.067-5.438c2.286-1.207,4.837-1.812,7.652-1.812
			c4.913,0,9.115,1.771,12.608,5.31c3.494,3.539,5.24,7.8,5.24,12.779c0,5.087-1.73,9.405-5.192,12.955
			c-3.462,3.551-7.638,5.324-12.528,5.324c-2.754,0-5.282-0.571-7.591-1.717c-2.309-1.144-4.394-2.85-6.257-5.117v18.598h-4.45
			V42.694z M263.484,46.097c-3.849,0-7.09,1.344-9.722,4.033c-2.633,2.689-3.948,6.034-3.948,10.034c0,2.625,0.585,4.986,1.76,7.081
			c1.173,2.097,2.854,3.758,5.042,4.986c2.188,1.228,4.499,1.842,6.931,1.842c2.39,0,4.636-0.619,6.74-1.858
			c2.104-1.238,3.778-2.97,5.027-5.191c1.247-2.223,1.871-4.552,1.871-6.986c0-2.456-0.619-4.784-1.856-6.985
			s-2.902-3.912-4.995-5.129S265.957,46.097,263.484,46.097z"/>
	</g>
</g>
<g>
	<defs>
		<rect id="SVGID_13_" x="-313.619" y="0.624" width="65.996" height="65.996"/>
	</defs>
	<clipPath id="SVGID_2_">
		<use xlink:href="#SVGID_13_"  overflow="visible"/>
	</clipPath>
	<g clip-path="url(#SVGID_2_)">
		<defs>
			<rect id="SVGID_15_" x="-596.118" y="-222.104" width="799.899" height="599.925"/>
		</defs>
		<clipPath id="SVGID_4_">
			<use xlink:href="#SVGID_15_"  overflow="visible"/>
		</clipPath>
		<g clip-path="url(#SVGID_4_)">
			
				<image overflow="visible" width="800" height="600" xlink:href="A37A38C3B7C1F32F.png"  transform="matrix(0.9999 0 0 0.9999 -596.1182 -222.1035)">
			</image>
		</g>
	</g>
</g>
<g>
	<defs>
		<rect id="SVGID_17_" x="-325.155" y="-230.865" width="62.667" height="64"/>
	</defs>
	<clipPath id="SVGID_6_">
		<use xlink:href="#SVGID_17_"  overflow="visible"/>
	</clipPath>
	<g clip-path="url(#SVGID_6_)">
		<defs>
			<rect id="SVGID_19_" x="-525.454" y="-541.052" width="799.899" height="599.925"/>
		</defs>
		<clipPath id="SVGID_8_">
			<use xlink:href="#SVGID_19_"  overflow="visible"/>
		</clipPath>
		<g transform="matrix(1 0 0 1 6.103516e-05 6.103516e-05)" clip-path="url(#SVGID_8_)">
			
				<image overflow="visible" width="800" height="600" xlink:href="A37A38C3B7C1F32D.png"  transform="matrix(0.9999 0 0 0.9999 -525.4541 -541.0518)">
			</image>
		</g>
	</g>
</g>
<g>
	<defs>
		<rect id="SVGID_21_" x="-1.971" y="-284.291" width="64" height="63.667"/>
	</defs>
	<clipPath id="SVGID_10_">
		<use xlink:href="#SVGID_21_"  overflow="visible"/>
	</clipPath>
	<g clip-path="url(#SVGID_10_)">
		<defs>
			<rect id="SVGID_23_" x="-285.937" y="-593.811" width="799.899" height="599.925"/>
		</defs>
		<clipPath id="SVGID_12_">
			<use xlink:href="#SVGID_23_"  overflow="visible"/>
		</clipPath>
		<g transform="matrix(1 0 0 1 3.051758e-05 6.103516e-05)" clip-path="url(#SVGID_12_)">
			
				<image overflow="visible" width="800" height="600" xlink:href="A37A38C3B7C1F333.png"  transform="matrix(0.9999 0 0 0.9999 -285.9365 -593.8105)">
			</image>
		</g>
	</g>
</g>
<g>
	<defs>
		<rect id="SVGID_25_" x="266.086" y="-280.112" width="63.75" height="63.5"/>
	</defs>
	<clipPath id="SVGID_14_">
		<use xlink:href="#SVGID_25_"  overflow="visible"/>
	</clipPath>
	<g clip-path="url(#SVGID_14_)">
		<defs>
			<rect id="SVGID_27_" x="-185.88" y="-590.049" width="799.899" height="599.925"/>
		</defs>
		<clipPath id="SVGID_16_">
			<use xlink:href="#SVGID_27_"  overflow="visible"/>
		</clipPath>
		<g transform="matrix(1 0 0 1 0 6.103516e-05)" clip-path="url(#SVGID_16_)">
			
				<image overflow="visible" width="800" height="600" xlink:href="A37A38C3B7C1F335.png"  transform="matrix(0.9999 0 0 0.9999 -185.8799 -590.0488)">
			</image>
		</g>
	</g>
</g>
<g>
	<defs>
		<rect id="SVGID_33_" x="-313.619" y="0.624" width="65.996" height="65.996"/>
	</defs>
	<clipPath id="SVGID_18_">
		<use xlink:href="#SVGID_33_"  overflow="visible"/>
	</clipPath>
	<g clip-path="url(#SVGID_18_)">
		<defs>
			<rect id="SVGID_35_" x="-596.118" y="-222.104" width="799.899" height="599.925"/>
		</defs>
		<clipPath id="SVGID_20_">
			<use xlink:href="#SVGID_35_"  overflow="visible"/>
		</clipPath>
		<g clip-path="url(#SVGID_20_)">
			
				<image overflow="visible" width="800" height="600" xlink:href="A37A38C3B7C1F337.png"  transform="matrix(0.9999 0 0 0.9999 -596.1182 -222.1035)">
			</image>
		</g>
	</g>
</g>
<g>
	<defs>
		<rect id="SVGID_37_" x="-325.155" y="-230.865" width="62.667" height="64"/>
	</defs>
	<clipPath id="SVGID_22_">
		<use xlink:href="#SVGID_37_"  overflow="visible"/>
	</clipPath>
	<g clip-path="url(#SVGID_22_)">
		<defs>
			<rect id="SVGID_39_" x="-525.454" y="-541.052" width="799.899" height="599.925"/>
		</defs>
		<clipPath id="SVGID_24_">
			<use xlink:href="#SVGID_39_"  overflow="visible"/>
		</clipPath>
		<g transform="matrix(1 0 0 1 6.103516e-05 6.103516e-05)" clip-path="url(#SVGID_24_)">
			
				<image overflow="visible" width="800" height="600" xlink:href="A37A38C3B7C1F334.png"  transform="matrix(0.9999 0 0 0.9999 -525.4541 -541.0518)">
			</image>
		</g>
	</g>
</g>
<g>
	<defs>
		<rect id="SVGID_41_" x="-1.971" y="-284.291" width="64" height="63.667"/>
	</defs>
	<clipPath id="SVGID_26_">
		<use xlink:href="#SVGID_41_"  overflow="visible"/>
	</clipPath>
	<g clip-path="url(#SVGID_26_)">
		<defs>
			<rect id="SVGID_43_" x="-285.937" y="-593.811" width="799.899" height="599.925"/>
		</defs>
		<clipPath id="SVGID_28_">
			<use xlink:href="#SVGID_43_"  overflow="visible"/>
		</clipPath>
		<g transform="matrix(1 0 0 1 3.051758e-05 6.103516e-05)" clip-path="url(#SVGID_28_)">
			
				<image overflow="visible" width="800" height="600" xlink:href="A37A38C3B7C1F33C.png"  transform="matrix(0.9999 0 0 0.9999 -285.9365 -593.8105)">
			</image>
		</g>
	</g>
</g>
<g>
	<defs>
		<rect id="SVGID_45_" x="266.086" y="-280.112" width="63.75" height="63.5"/>
	</defs>
	<clipPath id="SVGID_30_">
		<use xlink:href="#SVGID_45_"  overflow="visible"/>
	</clipPath>
	<g clip-path="url(#SVGID_30_)">
		<defs>
			<rect id="SVGID_47_" x="-185.88" y="-590.049" width="799.899" height="599.925"/>
		</defs>
		<clipPath id="SVGID_32_">
			<use xlink:href="#SVGID_47_"  overflow="visible"/>
		</clipPath>
		<g transform="matrix(1 0 0 1 0 6.103516e-05)" clip-path="url(#SVGID_32_)">
			
				<image overflow="visible" width="800" height="600" xlink:href="A37A38C3B7C1F33D.png"  transform="matrix(0.9999 0 0 0.9999 -185.8799 -590.0488)">
			</image>
		</g>
	</g>
</g>
<g>
	<defs>
		<rect id="SVGID_53_" x="-313.619" y="0.624" width="65.996" height="65.996"/>
	</defs>
	<clipPath id="SVGID_34_">
		<use xlink:href="#SVGID_53_"  overflow="visible"/>
	</clipPath>
	<g clip-path="url(#SVGID_34_)">
		<defs>
			<rect id="SVGID_55_" x="-596.118" y="-222.104" width="799.899" height="599.925"/>
		</defs>
		<clipPath id="SVGID_36_">
			<use xlink:href="#SVGID_55_"  overflow="visible"/>
		</clipPath>
		<g clip-path="url(#SVGID_36_)">
			
				<image overflow="visible" width="800" height="600" xlink:href="A37A38C3B7C1F33F.png"  transform="matrix(0.9999 0 0 0.9999 -596.1182 -222.1035)">
			</image>
		</g>
	</g>
</g>
<g>
	<defs>
		<rect id="SVGID_57_" x="-325.155" y="-230.865" width="62.667" height="64"/>
	</defs>
	<clipPath id="SVGID_38_">
		<use xlink:href="#SVGID_57_"  overflow="visible"/>
	</clipPath>
	<g clip-path="url(#SVGID_38_)">
		<defs>
			<rect id="SVGID_59_" x="-525.454" y="-541.052" width="799.899" height="599.925"/>
		</defs>
		<clipPath id="SVGID_40_">
			<use xlink:href="#SVGID_59_"  overflow="visible"/>
		</clipPath>
		<g transform="matrix(1 0 0 1 6.103516e-05 6.103516e-05)" clip-path="url(#SVGID_40_)">
			
				<image overflow="visible" width="800" height="600" xlink:href="A0AA34498F0825DC.png"  transform="matrix(0.9999 0 0 0.9999 -525.4541 -541.0518)">
			</image>
		</g>
	</g>
</g>
<g>
	<defs>
		<rect id="SVGID_61_" x="-1.971" y="-284.291" width="64" height="63.667"/>
	</defs>
	<clipPath id="SVGID_42_">
		<use xlink:href="#SVGID_61_"  overflow="visible"/>
	</clipPath>
	<g clip-path="url(#SVGID_42_)">
		<defs>
			<rect id="SVGID_63_" x="-285.937" y="-593.811" width="799.899" height="599.925"/>
		</defs>
		<clipPath id="SVGID_44_">
			<use xlink:href="#SVGID_63_"  overflow="visible"/>
		</clipPath>
		<g transform="matrix(1 0 0 1 3.051758e-05 6.103516e-05)" clip-path="url(#SVGID_44_)">
			
				<image overflow="visible" width="800" height="600" xlink:href="A0AA34498F0825DB.png"  transform="matrix(0.9999 0 0 0.9999 -285.9365 -593.8105)">
			</image>
		</g>
	</g>
</g>
<g>
	<defs>
		<rect id="SVGID_65_" x="266.086" y="-280.112" width="63.75" height="63.5"/>
	</defs>
	<clipPath id="SVGID_46_">
		<use xlink:href="#SVGID_65_"  overflow="visible"/>
	</clipPath>
	<g clip-path="url(#SVGID_46_)">
		<defs>
			<rect id="SVGID_67_" x="-185.88" y="-590.049" width="799.899" height="599.925"/>
		</defs>
		<clipPath id="SVGID_48_">
			<use xlink:href="#SVGID_67_"  overflow="visible"/>
		</clipPath>
		<g transform="matrix(1 0 0 1 0 6.103516e-05)" clip-path="url(#SVGID_48_)">
			
				<image overflow="visible" width="800" height="600" xlink:href="A0AA34498F0825D4.png"  transform="matrix(0.9999 0 0 0.9999 -185.8799 -590.0488)">
			</image>
		</g>
	</g>
</g>
</svg>
